<svg width="30" height="29" viewBox="0 0 30 29" fill="none" xmlns="http://www.w3.org/2000/svg">
<g clip-path="url(#clip0_1_270)">
<rect x="0.749146" y="0.250732" width="28.7492" height="28.7492" rx="13" fill="#91A087"/>
<path d="M15.1237 0.250732C7.18494 0.250732 0.749146 6.68653 0.749146 14.6253C0.749146 21.3664 5.39042 27.0231 11.6514 28.5767V19.0182H8.68738V14.6253H11.6514V12.7325C11.6514 7.83995 13.8657 5.57221 18.6691 5.57221C19.5799 5.57221 21.1513 5.75103 21.7941 5.92928V9.91104C21.4549 9.87539 20.8655 9.85757 20.1336 9.85757C17.7767 9.85757 16.8659 10.7505 16.8659 13.0717V14.6253H21.5613L20.7546 19.0182H16.8659V28.8947C23.9837 28.0351 29.4989 21.9748 29.4989 14.6253C29.4983 6.68653 23.0626 0.250732 15.1237 0.250732Z" fill="#EFF2ED"/>
</g>
<defs>
<clipPath id="clip0_1_270">
<rect x="0.749146" y="0.250732" width="28.7492" height="28.7492" rx="13" fill="white"/>
</clipPath>
</defs>
</svg>
