<svg width="30" height="29" viewBox="0 0 30 29" fill="none" xmlns="http://www.w3.org/2000/svg">
<g clip-path="url(#clip0_1_209)">
<path d="M15.1238 0.250793C7.185 0.250793 0.749207 6.68659 0.749207 14.6254C0.749207 21.3665 5.39048 27.0232 11.6515 28.5768V19.0183H8.68744V14.6254H11.6515V12.7325C11.6515 7.84001 13.8657 5.57227 18.6692 5.57227C19.5799 5.57227 21.1514 5.75109 21.7942 5.92934V9.9111C21.455 9.87545 20.8656 9.85763 20.1336 9.85763C17.7768 9.85763 16.866 10.7506 16.866 13.0718V14.6254H21.5613L20.7546 19.0183H16.866V28.8948C23.9837 28.0352 29.499 21.9748 29.499 14.6254C29.4984 6.68659 23.0626 0.250793 15.1238 0.250793Z" fill="white"/>
</g>
<defs>
<clipPath id="clip0_1_209">
<rect width="28.7492" height="28.7492" fill="white" transform="translate(0.749207 0.250793)"/>
</clipPath>
</defs>
</svg>
