<svg width="29" height="29" viewBox="0 0 29 29" fill="none" xmlns="http://www.w3.org/2000/svg">
<g clip-path="url(#clip0_1_269)">
<rect y="0.250732" width="28.7492" height="28.7492" rx="13" fill="#91A087"/>
<path d="M14.3746 2.83928C18.2153 2.83928 18.6701 2.85613 20.1806 2.92351C21.5844 2.98528 22.3424 3.22111 22.8478 3.41764C23.5159 3.67593 23.9988 3.99037 24.4986 4.49012C25.0039 4.99547 25.3128 5.47276 25.5711 6.14095C25.7676 6.64631 26.0034 7.40996 26.0652 8.80811C26.1326 10.3242 26.1494 10.779 26.1494 14.6141C26.1494 18.4548 26.1326 18.9096 26.0652 20.4201C26.0034 21.8239 25.7676 22.5819 25.5711 23.0873C25.3128 23.7555 24.9983 24.2383 24.4986 24.7381C23.9932 25.2434 23.5159 25.5523 22.8478 25.8106C22.3424 26.0071 21.5787 26.2429 20.1806 26.3047C18.6645 26.3721 18.2097 26.3889 14.3746 26.3889C10.5339 26.3889 10.0791 26.3721 8.56861 26.3047C7.16484 26.2429 6.4068 26.0071 5.90145 25.8106C5.23325 25.5523 4.75036 25.2378 4.25061 24.7381C3.74526 24.2327 3.43643 23.7555 3.17813 23.0873C2.98161 22.5819 2.74577 21.8183 2.68401 20.4201C2.61663 18.904 2.59978 18.4492 2.59978 14.6141C2.59978 10.7734 2.61663 10.3186 2.68401 8.80811C2.74577 7.40434 2.98161 6.64631 3.17813 6.14095C3.43643 5.47276 3.75087 4.98986 4.25061 4.49012C4.75597 3.98476 5.23325 3.67593 5.90145 3.41764C6.4068 3.22111 7.17046 2.98528 8.56861 2.92351C10.0791 2.85613 10.5339 2.83928 14.3746 2.83928ZM14.3746 0.250732C10.4721 0.250732 9.98361 0.267578 8.45069 0.334959C6.92339 0.40234 5.87337 0.649403 4.96373 1.00315C4.01478 1.37375 3.21183 1.86226 2.41448 2.66522C1.61153 3.46256 1.12302 4.26551 0.75242 5.20885C0.398671 6.1241 0.151607 7.16851 0.0842262 8.69581C0.0168452 10.2343 0 10.7229 0 14.6253C0 18.5278 0.0168452 19.0163 0.0842262 20.5492C0.151607 22.0765 0.398671 23.1266 0.75242 24.0362C1.12302 24.9852 1.61153 25.7881 2.41448 26.5854C3.21183 27.3828 4.01478 27.8769 4.95811 28.2419C5.87337 28.5956 6.91778 28.8427 8.44508 28.9101C9.97799 28.9775 10.4665 28.9943 14.369 28.9943C18.2715 28.9943 18.76 28.9775 20.2929 28.9101C21.8202 28.8427 22.8702 28.5956 23.7799 28.2419C24.7232 27.8769 25.5261 27.3828 26.3235 26.5854C27.1208 25.7881 27.615 24.9852 27.9799 24.0418C28.3337 23.1266 28.5807 22.0822 28.6481 20.5549C28.7155 19.0219 28.7324 18.5334 28.7324 14.6309C28.7324 10.7285 28.7155 10.24 28.6481 8.70704C28.5807 7.17974 28.3337 6.12972 27.9799 5.22008C27.6262 4.26551 27.1377 3.46256 26.3347 2.66522C25.5374 1.86787 24.7344 1.37375 23.7911 1.00877C22.8758 0.655018 21.8314 0.407955 20.3041 0.340574C18.7656 0.267578 18.2771 0.250732 14.3746 0.250732Z" fill="#EFF2ED"/>
<path d="M14.3746 7.24146C10.2981 7.24146 6.99078 10.5487 6.99078 14.6253C6.99078 18.7018 10.2981 22.0091 14.3746 22.0091C18.4512 22.0091 21.7584 18.7018 21.7584 14.6253C21.7584 10.5487 18.4512 7.24146 14.3746 7.24146ZM14.3746 19.4149C11.7299 19.4149 9.58495 17.27 9.58495 14.6253C9.58495 11.9806 11.7299 9.83562 14.3746 9.83562C17.0193 9.83562 19.1643 11.9806 19.1643 14.6253C19.1643 17.27 17.0193 19.4149 14.3746 19.4149Z" fill="#EFF2ED"/>
<path d="M23.7743 6.94942C23.7743 7.90398 22.9994 8.67325 22.0504 8.67325C21.0959 8.67325 20.3266 7.89837 20.3266 6.94942C20.3266 5.99485 21.1015 5.22559 22.0504 5.22559C22.9994 5.22559 23.7743 6.00047 23.7743 6.94942Z" fill="#EFF2ED"/>
</g>
<defs>
<clipPath id="clip0_1_269">
<rect y="0.250732" width="28.7492" height="28.7492" rx="13" fill="white"/>
</clipPath>
</defs>
</svg>
