<svg width="29" height="29" viewBox="0 0 29 29" fill="none" xmlns="http://www.w3.org/2000/svg">
<g clip-path="url(#clip0_1_208)">
<path d="M14.3746 2.83934C18.2153 2.83934 18.6701 2.85619 20.1806 2.92357C21.5844 2.98534 22.3424 3.22117 22.8478 3.4177C23.5159 3.67599 23.9988 3.99044 24.4986 4.49018C25.0039 4.99553 25.3128 5.47282 25.5711 6.14101C25.7676 6.64637 26.0034 7.41002 26.0652 8.80817C26.1326 10.3242 26.1494 10.7791 26.1494 14.6142C26.1494 18.4549 26.1326 18.9097 26.0652 20.4202C26.0034 21.8239 25.7676 22.582 25.5711 23.0873C25.3128 23.7555 24.9983 24.2384 24.4986 24.7382C23.9932 25.2435 23.5159 25.5523 22.8478 25.8106C22.3424 26.0072 21.5787 26.243 20.1806 26.3048C18.6645 26.3721 18.2097 26.389 14.3746 26.389C10.5339 26.389 10.0791 26.3721 8.56861 26.3048C7.16484 26.243 6.4068 26.0072 5.90145 25.8106C5.23325 25.5523 4.75036 25.2379 4.25061 24.7382C3.74526 24.2328 3.43643 23.7555 3.17813 23.0873C2.98161 22.582 2.74577 21.8183 2.68401 20.4202C2.61663 18.9041 2.59978 18.4493 2.59978 14.6142C2.59978 10.7735 2.61663 10.3186 2.68401 8.80817C2.74577 7.4044 2.98161 6.64637 3.17813 6.14101C3.43643 5.47282 3.75087 4.98992 4.25061 4.49018C4.75597 3.98482 5.23325 3.67599 5.90145 3.4177C6.4068 3.22117 7.17046 2.98534 8.56861 2.92357C10.0791 2.85619 10.5339 2.83934 14.3746 2.83934ZM14.3746 0.250793C10.4721 0.250793 9.98361 0.267639 8.45069 0.33502C6.92339 0.402401 5.87337 0.649464 4.96373 1.00321C4.01478 1.37381 3.21183 1.86232 2.41448 2.66528C1.61153 3.46262 1.12302 4.26557 0.75242 5.20891C0.398671 6.12417 0.151607 7.16857 0.0842262 8.69587C0.0168452 10.2344 0 10.7229 0 14.6254C0 18.5279 0.0168452 19.0164 0.0842262 20.5493C0.151607 22.0766 0.398671 23.1266 0.75242 24.0363C1.12302 24.9852 1.61153 25.7882 2.41448 26.5855C3.21183 27.3829 4.01478 27.877 4.95811 28.242C5.87337 28.5957 6.91778 28.8428 8.44508 28.9102C9.97799 28.9775 10.4665 28.9944 14.369 28.9944C18.2715 28.9944 18.76 28.9775 20.2929 28.9102C21.8202 28.8428 22.8702 28.5957 23.7799 28.242C24.7232 27.877 25.5261 27.3829 26.3235 26.5855C27.1208 25.7882 27.615 24.9852 27.9799 24.0419C28.3337 23.1266 28.5807 22.0822 28.6481 20.5549C28.7155 19.022 28.7324 18.5335 28.7324 14.631C28.7324 10.7285 28.7155 10.24 28.6481 8.7071C28.5807 7.1798 28.3337 6.12978 27.9799 5.22014C27.6262 4.26557 27.1377 3.46262 26.3347 2.66528C25.5374 1.86794 24.7344 1.37381 23.7911 1.00883C22.8758 0.655079 21.8314 0.408016 20.3041 0.340635C18.7656 0.267639 18.2771 0.250793 14.3746 0.250793Z" fill="white"/>
<path d="M14.3746 7.24158C10.2981 7.24158 6.99078 10.5489 6.99078 14.6254C6.99078 18.702 10.2981 22.0092 14.3746 22.0092C18.4512 22.0092 21.7584 18.702 21.7584 14.6254C21.7584 10.5489 18.4512 7.24158 14.3746 7.24158ZM14.3746 19.4151C11.7299 19.4151 9.58495 17.2701 9.58495 14.6254C9.58495 11.9807 11.7299 9.83574 14.3746 9.83574C17.0193 9.83574 19.1643 11.9807 19.1643 14.6254C19.1643 17.2701 17.0193 19.4151 14.3746 19.4151Z" fill="white"/>
<path d="M23.7743 6.94954C23.7743 7.9041 22.9994 8.67337 22.0504 8.67337C21.0959 8.67337 20.3266 7.89849 20.3266 6.94954C20.3266 5.99497 21.1015 5.22571 22.0504 5.22571C22.9994 5.22571 23.7743 6.00059 23.7743 6.94954Z" fill="white"/>
</g>
<defs>
<clipPath id="clip0_1_208">
<rect width="28.7492" height="28.7492" fill="white" transform="translate(0 0.250793)"/>
</clipPath>
</defs>
</svg>
