<svg width="29" height="29" viewBox="0 0 29 29" fill="none" xmlns="http://www.w3.org/2000/svg">
<g clip-path="url(#clip0_1_272)">
<rect x="0.247559" width="28.75" height="28.75" rx="13" fill="#91A087"/>
<path d="M14.6226 0C6.68262 0 0.247559 6.43506 0.247559 14.375C0.247559 20.4675 4.03784 25.6672 9.38354 27.7617C9.26001 26.6218 9.14209 24.8811 9.43408 23.6401C9.698 22.5171 11.1187 16.4976 11.1187 16.4976C11.1187 16.4976 10.6863 15.6384 10.6863 14.3638C10.6863 12.3647 11.843 10.8711 13.2861 10.8711C14.5103 10.8711 15.1055 11.792 15.1055 12.8982C15.1055 14.1335 14.3193 15.9753 13.915 17.6824C13.5781 19.1143 14.6338 20.2822 16.0432 20.2822C18.5981 20.2822 20.5635 17.5869 20.5635 13.7012C20.5635 10.259 18.0928 7.8501 14.5608 7.8501C10.4729 7.8501 8.06958 10.916 8.06958 14.0886C8.06958 15.324 8.54687 16.6492 9.14209 17.3679C9.26001 17.5083 9.27685 17.6375 9.24316 17.7778C9.13647 18.2327 8.8894 19.2097 8.84448 19.4062C8.78271 19.6702 8.63672 19.7263 8.36157 19.5972C6.5647 18.7605 5.44165 16.1382 5.44165 14.0269C5.44165 9.48975 8.73779 5.32886 14.937 5.32886C19.9233 5.32886 23.7978 8.8833 23.7978 13.6338C23.7978 18.5864 20.6758 22.5732 16.3408 22.5732C14.8865 22.5732 13.5164 21.8152 13.0447 20.9224C13.0447 20.9224 12.3259 23.6682 12.1519 24.342C11.8262 25.5886 10.9502 27.1553 10.3662 28.1099C11.7139 28.5254 13.1401 28.75 14.6226 28.75C22.5625 28.75 28.9976 22.3149 28.9976 14.375C28.9976 6.43506 22.5625 0 14.6226 0Z" fill="#EFF2ED"/>
</g>
<defs>
<clipPath id="clip0_1_272">
<rect x="0.247559" width="28.75" height="28.75" rx="13" fill="white"/>
</clipPath>
</defs>
</svg>
