<svg width="29" height="29" viewBox="0 0 29 29" fill="none" xmlns="http://www.w3.org/2000/svg">
<g clip-path="url(#clip0_1_211)">
<path d="M14.6227 0C6.68274 0 0.247681 6.43506 0.247681 14.375C0.247681 20.4675 4.03796 25.6672 9.38367 27.7617C9.26013 26.6218 9.14221 24.8811 9.4342 23.6401C9.69812 22.5171 11.1188 16.4976 11.1188 16.4976C11.1188 16.4976 10.6864 15.6384 10.6864 14.3638C10.6864 12.3647 11.8431 10.8711 13.2863 10.8711C14.5104 10.8711 15.1056 11.792 15.1056 12.8982C15.1056 14.1335 14.3195 15.9753 13.9152 17.6824C13.5782 19.1143 14.6339 20.2822 16.0433 20.2822C18.5983 20.2822 20.5636 17.5869 20.5636 13.7012C20.5636 10.259 18.0929 7.8501 14.5609 7.8501C10.473 7.8501 8.0697 10.916 8.0697 14.0886C8.0697 15.324 8.547 16.6492 9.14221 17.3679C9.26013 17.5083 9.27698 17.6375 9.24329 17.7778C9.1366 18.2327 8.88953 19.2097 8.8446 19.4062C8.78284 19.6702 8.63684 19.7263 8.36169 19.5972C6.56482 18.7605 5.44177 16.1382 5.44177 14.0269C5.44177 9.48975 8.73792 5.32886 14.9371 5.32886C19.9235 5.32886 23.798 8.8833 23.798 13.6338C23.798 18.5864 20.6759 22.5732 16.3409 22.5732C14.8866 22.5732 13.5165 21.8152 13.0448 20.9224C13.0448 20.9224 12.326 23.6682 12.152 24.342C11.8263 25.5886 10.9503 27.1553 10.3663 28.1099C11.714 28.5254 13.1403 28.75 14.6227 28.75C22.5626 28.75 28.9977 22.3149 28.9977 14.375C28.9977 6.43506 22.5626 0 14.6227 0Z" fill="white"/>
</g>
<defs>
<clipPath id="clip0_1_211">
<rect width="28.75" height="28.75" fill="white" transform="translate(0.247681)"/>
</clipPath>
</defs>
</svg>
