<svg width="30" height="29" viewBox="0 0 30 29" fill="none" xmlns="http://www.w3.org/2000/svg">
<g clip-path="url(#clip0_1_210)">
<path d="M0.498413 29L2.51924 21.6174C1.27225 19.4565 0.617004 17.0068 0.618201 14.4948C0.621795 6.6415 7.0125 0.250793 14.8646 0.250793C18.6751 0.251991 22.252 1.73617 24.9424 4.42901C27.6317 7.12185 29.1123 10.7011 29.1111 14.508C29.1075 22.3625 22.7168 28.7532 14.8646 28.7532C12.4808 28.752 10.1318 28.1543 8.05107 27.0187L0.498413 29ZM8.40085 24.4397C10.4085 25.6315 12.3251 26.3455 14.8598 26.3467C21.3859 26.3467 26.7021 21.0353 26.7057 14.5056C26.7081 7.96277 21.417 2.65854 14.8694 2.65614C8.33856 2.65614 3.02595 7.96756 3.02355 14.496C3.02235 17.1613 3.80337 19.157 5.11506 21.2449L3.91837 25.6148L8.40085 24.4397ZM22.0411 17.8944C21.9525 17.7459 21.7153 17.6572 21.3584 17.4788C21.0026 17.3003 19.2525 16.439 18.9255 16.3204C18.5996 16.2018 18.3624 16.1419 18.1241 16.4989C17.8869 16.8547 17.2041 17.6572 16.9969 17.8944C16.7896 18.1316 16.5812 18.1615 16.2254 17.9831C15.8697 17.8046 14.7221 17.4296 13.3625 16.2162C12.3048 15.2723 11.5896 14.1067 11.3824 13.7497C11.1751 13.394 11.3608 13.2011 11.5381 13.0238C11.6986 12.8645 11.8939 12.6082 12.0724 12.3997C12.2532 12.1937 12.3119 12.0452 12.4317 11.8068C12.5503 11.5696 12.4916 11.3612 12.4018 11.1827C12.3119 11.0054 11.6004 9.25289 11.3045 8.54015C11.0146 7.84657 10.7212 7.94001 10.5031 7.92923L9.82034 7.91725C9.58316 7.91725 9.19744 8.00589 8.87162 8.36286C8.54579 8.71983 7.62582 9.57991 7.62582 11.3324C7.62582 13.0849 8.90156 14.7775 9.07885 15.0147C9.25734 15.2519 11.5884 18.8479 15.1593 20.3896C16.0086 20.7562 16.6722 20.9754 17.1885 21.1395C18.0414 21.4102 18.8176 21.3719 19.431 21.2808C20.115 21.179 21.5368 20.4196 21.8339 19.5882C22.131 18.7557 22.131 18.043 22.0411 17.8944Z" fill="white"/>
</g>
<defs>
<clipPath id="clip0_1_210">
<rect width="28.7493" height="28.7492" fill="white" transform="translate(0.498413 0.250793)"/>
</clipPath>
</defs>
</svg>
