<svg width="30" height="29" viewBox="0 0 30 29" fill="none" xmlns="http://www.w3.org/2000/svg">
<g clip-path="url(#clip0_1_271)">
<rect x="0.498291" y="0.250732" width="28.7493" height="28.7492" rx="13" fill="#91A087"/>
<path d="M0.498291 28.9999L2.51912 21.6174C1.27212 19.4564 0.616881 17.0067 0.618079 14.4948C0.621673 6.64144 7.01238 0.250732 14.8645 0.250732C18.675 0.25193 22.2519 1.73611 24.9423 4.42895C27.6315 7.12179 29.1121 10.7011 29.1109 14.5079C29.1073 22.3625 22.7166 28.7532 14.8645 28.7532C12.4807 28.752 10.1317 28.1542 8.05095 27.0186L0.498291 28.9999ZM8.40073 24.4396C10.4084 25.6315 12.325 26.3454 14.8597 26.3466C21.3858 26.3466 26.702 21.0352 26.7056 14.5055C26.708 7.96271 21.4169 2.65848 14.8693 2.65608C8.33844 2.65608 3.02583 7.9675 3.02343 14.496C3.02223 17.1613 3.80325 19.1569 5.11493 21.2448L3.91825 25.6147L8.40073 24.4396ZM22.041 17.8944C21.9524 17.7458 21.7152 17.6572 21.3582 17.4787C21.0025 17.3002 19.2524 16.4389 18.9253 16.3203C18.5995 16.2017 18.3623 16.1419 18.1239 16.4988C17.8868 16.8546 17.204 17.6572 16.9967 17.8944C16.7895 18.1315 16.5811 18.1615 16.2253 17.983C15.8695 17.8045 14.722 17.4296 13.3624 16.2161C12.3046 15.2722 11.5895 14.1066 11.3823 13.7497C11.175 13.3939 11.3607 13.201 11.538 13.0238C11.6985 12.8644 11.8938 12.6081 12.0722 12.3997C12.2531 12.1936 12.3118 12.0451 12.4316 11.8067C12.5502 11.5695 12.4915 11.3611 12.4017 11.1826C12.3118 11.0053 11.6003 9.25283 11.3044 8.54009C11.0145 7.84651 10.721 7.93995 10.503 7.92916L9.82022 7.91719C9.58304 7.91719 9.19732 8.00583 8.8715 8.3628C8.54567 8.71977 7.6257 9.57985 7.6257 11.3324C7.6257 13.0849 8.90144 14.7775 9.07873 15.0146C9.25721 15.2518 11.5883 18.8479 15.1592 20.3895C16.0085 20.7561 16.6721 20.9753 17.1884 21.1394C18.0413 21.4101 18.8175 21.3718 19.4308 21.2808C20.1148 21.179 21.5367 20.4195 21.8338 19.5882C22.1309 18.7556 22.1309 18.0429 22.041 17.8944Z" fill="#EFF2ED"/>
</g>
<defs>
<clipPath id="clip0_1_271">
<rect x="0.498291" y="0.250732" width="28.7493" height="28.7492" rx="13" fill="white"/>
</clipPath>
</defs>
</svg>
